<svg width="557" height="184" viewBox="0 0 557 184" fill="none" xmlns="http://www.w3.org/2000/svg">
<g clip-path="url(#clip0_1_2)">
<path d="M65.6091 0.0700806C67.1729 0.0583806 68.7367 0.041511 70.3003 0.018811C87.0547 -0.212729 104.561 1.54688 117.466 13.5366C124.091 21.1957 127.471 29.3478 127.239 39.4351C126.356 49.7276 121.813 58.3223 113.993 65.0523C106.182 70.7485 96.3313 73.2477 86.9926 75.3023C87.4541 75.8385 87.9156 76.3748 88.391 76.9273C92.6639 82.0614 96.3732 87.3065 99.8676 92.9898C100.289 93.6743 100.71 94.3587 101.143 95.064C101.781 96.1004 101.781 96.1004 102.431 97.1577C121.882 128.774 144.375 158.225 182.118 167.615C204.228 172.542 227.615 170.048 247.993 160.302C248.964 159.873 249.934 159.444 250.934 159.001C259.215 155.169 265.943 149.991 272.993 144.302C274.321 143.295 275.652 142.292 276.993 141.302C275.631 144.369 274.096 146.421 271.681 148.74C271.051 149.348 270.422 149.957 269.774 150.584C269.186 151.151 268.599 151.718 267.993 152.302C266.848 153.509 266.848 153.509 265.681 154.74C255.884 164.081 245.463 170.468 232.993 175.552C232.162 175.894 231.332 176.235 230.476 176.587C224.71 178.864 219.088 180.238 212.993 181.302C212.137 181.487 211.282 181.671 210.4 181.861C205.156 182.954 159.983 191.217 121.993 160.302C120.973 159.495 119.954 158.688 118.903 157.857C93.0427 135.646 73.6629 100.895 57.9926 71.3023C59.7328 71.1901 59.7328 71.1901 61.5082 71.0757C72.2289 70.2374 82.0867 69.0282 90.1722 61.189C92.0124 58.9784 93.5328 56.778 94.9926 54.3023C95.351 53.699 95.7093 53.0957 96.0785 52.4741C99.7006 44.8313 99.1625 34.2662 96.8676 26.3023C93.6009 18.2564 87.7768 13.7662 79.9926 10.3023C74.555 8.06867 69.4117 7.87563 63.6176 7.67726C62.2273 7.61926 62.2273 7.61926 60.809 7.56007C58.5371 7.46637 56.2651 7.38067 53.9926 7.30226C54.0766 21.7672 54.1718 36.232 54.28 50.6967C54.33 57.4135 54.377 64.1303 54.4144 70.8472C54.4514 77.3312 54.4975 83.815 54.5507 90.2989C54.5697 92.7707 54.5847 95.2426 54.5957 97.7145C54.6127 101.181 54.6417 104.647 54.6737 108.113C54.6737 109.131 54.6736 110.15 54.6836 111.199C54.8428 126.779 57.2986 130.11 68.996 136.302C65.8322 137.245 63.0623 137.396 59.7684 137.324C58.7276 137.304 57.6868 137.284 56.6145 137.263C55.4977 137.236 54.3809 137.209 53.2303 137.181C52.0817 137.158 50.9333 137.134 49.75 137.11C46.0819 137.033 42.4139 136.949 38.746 136.865C36.259 136.812 33.772 136.759 31.285 136.707C25.1885 136.577 19.0922 136.442 12.996 136.302C20.6584 131.331 26.19 126.431 26.3119 117.04C26.3119 116.057 26.3119 115.074 26.3219 114.061C26.3319 113.02 26.3418 111.979 26.3518 110.906C26.3808 107.46 26.3949 104.014 26.4059 100.568C26.4179 98.1714 26.4288 95.7749 26.4408 93.3784C26.4618 88.3514 26.4738 83.3244 26.4808 78.2974C26.4918 71.8634 26.5399 65.4302 26.5968 58.9964C26.6338 54.0446 26.6447 49.0931 26.6477 44.1412C26.6577 41.7697 26.6698 39.3983 26.6958 37.027C26.7298 33.7044 26.7258 30.3838 26.7128 27.061C26.7408 25.5988 26.7408 25.5988 26.7688 24.107C26.6858 17.2908 24.9081 13.0975 20 8.30226C13.998 4.00712 7.1895 3.21293 0 2.30226V1.30226C44.4529 0.202778 44.453 0.202781 65.6167 0.0700806H65.6091Z" fill="#C8A03C" fill-opacity="0.8"/>
<path d="M138.903 61.5571C149.641 49.3321 169.389 44.1546 184.239 51.147C193.741 56.5934 199.215 63.3313 203.454 73.4165C204.454 78.4164 204.454 78.4169 204.454 89.4165H149.454C153.455 111.071 165.86 123.566 188.618 118.647C193.621 116.954 197.499 114.989 201.454 111.417H203.454C202.002 117.078 199.138 121.911 195.454 126.417L193.454 128.417C191.478 129.854 191.477 129.854 188.829 131.417L186.227 132.979C176.661 137.938 163.907 138.26 153.501 135.542C146.742 133.152 141.822 130.106 137.454 124.417L135.845 122.389C127.668 111.197 126.027 98.901 127.454 85.4165C129.02 77.0245 132.09 70.0462 137.454 63.4165L138.903 61.5571ZM170.993 53.4272C165.323 52.188 161.332 53.6802 156.993 57.4272C151.095 64.3368 149.993 72.6297 149.993 81.4272H181.993C181.993 66.4274 181.993 66.4272 180.431 61.8022C178.064 57.9995 175.106 55.2375 170.993 53.4272Z" fill="#C8A03C" fill-opacity="0.8"/>
<path d="M270.366 51.386V75.386C267.16 72.1792 265.605 70.3065 263.554 66.511C260.27 60.8883 256.586 57.2023 250.929 54.011C245.881 52.7799 241.88 52.8433 237.054 54.5735C233.926 56.6831 232.743 57.8681 231.366 61.386C229.947 70.0624 230.02 74.8768 252.804 82.261C262.482 85.5527 271.563 89.7787 276.366 99.386C277.148 108.408 277.734 116.723 272.206 124.37C265.939 131.237 257.889 135.952 248.456 136.496C236.215 136.829 225.765 136.271 214.366 131.386V103.386H216.366C216.97 104.555 217.573 105.724 218.194 106.929C219.001 108.477 219.809 110.025 220.616 111.573C221.012 112.342 221.408 113.111 221.816 113.904C225.286 120.531 228.835 126.949 236.366 129.386C241.966 130.077 248.105 130.731 253.054 127.573C260.059 121.557 259.184 111.731 252.366 106.386C249.178 104.795 245.896 103.551 242.554 102.323C224.883 95.6689 224.883 95.6689 219.366 89.386C218.644 88.5816 217.923 87.7772 217.179 86.9485C213.162 81.2696 212.408 75.1715 213.366 68.386C215.97 60.4826 220.329 55.1201 227.605 51.1711C241.563 44.5792 256.265 46.6856 270.366 51.386Z" fill="#C8A03C" fill-opacity="0.8"/>
<path d="M327.43 48.0019L330.373 48.0214C341.789 48.3108 350.729 51.5914 359.516 59.1191C368.868 69.1277 372.094 80.7754 371.958 94.123C371.104 107.542 364.55 118.552 354.743 127.502C343.034 135.852 330.873 138.272 316.743 136.502C304.965 133.238 295.982 125.675 289.743 115.314C283.499 104.103 282.786 90.958 285.477 78.4355C288.861 67.4632 296.667 58.2581 306.598 52.4667C313.854 49.2024 319.477 47.9468 327.43 48.0019ZM310.878 66.4667C304.869 79.958 304.608 98.0387 308.975 112.064L309.878 114.467C310.933 117.398 312.096 119.907 313.878 122.467C325.221 136.831 337.939 127.168 340.288 125.17C347.916 116.997 349.123 105.372 349.102 94.705L349.065 91.7167C349.055 82.8532 348.92 74.5805 344.878 66.4667C335.897 52.4649 323.238 46.0982 310.878 66.4667Z" fill="#C8A03C" fill-opacity="0.8"/>
<path d="M406.993 50.375L407.993 65.375L412.493 60.625C419.336 53.7726 425.885 50.3338 435.618 50C442.726 50.0694 448.199 52.1372 453.618 56.7617C460.426 64.1573 460.414 72.7871 460.364 82.2305C460.381 84.7337 460.399 87.237 460.417 89.7402C460.427 93.664 460.43 97.5877 460.429 101.511C460.429 105.314 460.46 109.116 460.489 112.918C460.479 114.092 460.473 115.266 460.464 116.476C460.474 122.82 460.474 122.82 462.853 128.572C465.145 130.503 467.134 131.502 469.993 132.375V134.375H428.993V132.375C430.107 131.921 431.22 131.468 432.368 131C435.955 129.65 435.955 129.65 437.993 127.375C438.313 125.114 438.313 125.114 438.284 122.47C438.296 121.448 438.309 120.427 438.322 119.374C438.322 118.266 438.332 117.158 438.332 116.016C438.342 114.878 438.345 113.741 438.352 112.57C438.362 110.159 438.367 107.748 438.367 105.337C438.367 101.654 438.407 97.9719 438.445 94.2891C438.455 91.9479 438.455 89.6068 438.457 87.2656C438.471 86.1654 438.486 85.0652 438.5 83.9317C438.464 77.7703 438.156 74.0471 433.996 69.375C430.633 66.8711 427.22 67.0757 423.121 67.0625C421.33 67.0374 421.33 67.0374 419.504 67.0117C415.675 67.4083 413.262 68.3713 409.996 70.375L406.996 72.375C407.063 80.1532 407.153 87.9309 407.258 95.7087C407.292 98.3558 407.32 101.003 407.342 103.65C407.376 107.451 407.428 111.251 407.484 115.051C407.494 116.238 407.497 117.426 407.504 118.649C407.533 120.301 407.533 120.301 407.564 121.986C407.58 123.441 407.58 123.441 407.597 124.926C408.066 127.805 408.678 128.66 410.996 130.375C414.096 131.575 414.096 131.575 416.996 132.375V134.375H374.996C375.996 132.375 375.996 132.375 379.434 131C382.945 129.764 382.945 129.764 384.204 127.635C385.183 124.841 385.236 122.558 385.223 119.597V116.079C385.212 114.831 385.202 113.583 385.191 112.297C385.191 110.374 385.191 110.374 385.181 108.413C385.171 105.013 385.152 101.613 385.13 98.2137C385.11 94.7415 385.102 91.2692 385.092 87.7969C385.07 80.9895 385.036 74.1823 384.994 67.375C384.237 67.0785 383.481 66.782 382.701 66.4766C379.712 65.2604 376.865 63.8441 373.994 62.375V60.375C374.695 60.1431 375.396 59.9113 376.118 59.6724C379.306 58.6165 382.494 57.5583 385.682 56.5C386.784 56.1352 387.887 55.7704 389.023 55.3945C390.09 55.04 391.156 54.6855 392.255 54.3203C393.234 53.9956 394.214 53.6709 395.223 53.3364C397.992 52.4129 397.992 52.4129 400.603 51.2534C402.993 50.375 402.993 50.375 406.993 50.375Z" fill="#C8A03C" fill-opacity="0.8"/>
<path d="M502.704 48.9383C511.107 47.2892 521.071 47.6145 528.794 51.5281C534.268 55.3905 538.349 59.208 540.794 65.5281C541.245 69.6855 541.235 73.826 541.236 78.0047C541.255 79.8088 541.256 79.8089 541.276 81.6492C541.317 85.4838 541.338 89.3184 541.357 93.1531C541.381 96.9949 541.409 100.837 541.449 104.679C541.473 107.067 541.488 109.455 541.493 111.844C541.508 113.465 541.508 113.466 541.524 115.12C541.581 123.238 547.049 124.576 550.435 124.626C552.701 124.532 554.623 124.16 556.794 123.528C550.843 130.809 545.176 136.616 535.454 137.817C530.775 137.988 527.486 137.677 523.794 134.528C521.116 130.989 520.303 127.907 519.794 123.528L518.357 126.153C514.911 131.327 509.456 134.227 503.982 136.903C496.294 138.41 488.856 138.479 481.771 134.872C470.399 127.141 469.468 113.348 475.169 104.966C483.183 96.3103 496.389 93.8277 507.252 90.3514C510.514 89.2952 513.757 88.1846 516.997 87.0652C518.794 86.5277 520.778 86.0424 520.77 85.7996C520.688 83.3332 520.589 80.8689 520.482 78.4031L520.413 76.0984C519.28 52.162 497.211 58.2905 492.794 62.5282L495.357 64.9657C497.601 67.6864 498.206 69.4985 498.044 73.0282C497.246 77.4813 495.372 79.844 491.759 82.4892C488.501 84.212 486.38 84.2454 482.794 83.5282C479.331 81.4734 477.096 79.4337 475.794 75.5282C475.206 69.7467 475.77 66.2064 479.126 61.411C484.856 54.9438 492.717 52.0087 500.794 49.5282L502.704 48.9383ZM521.322 90.6248C520.871 90.6249 520.782 90.6932 520.311 90.8599C518.5 91.5013 516.141 92.5426 514.537 93.3318C505.633 97.5766 498.376 101.598 494.244 111C493.904 114.52 493.659 116.829 495.244 120C497.905 122.793 499.654 124.722 503.502 125.394C510.014 125.513 514.884 123.451 519.796 119.136C522.029 115.844 522.028 115.844 521.86 106.875L521.682 103.125C521.572 98.7473 521.526 94.9991 521.322 90.6248Z" fill="#C8A03C" fill-opacity="0.8"/>
</g>
<defs>
<clipPath id="clip0_1_2">
<rect width="556.794" height="183.672" fill="white"/>
</clipPath>
</defs>
</svg>
